<svg width="256" height="256" viewBox="0 0 256 256" fill="none" xmlns="http://www.w3.org/2000/svg">
  <rect width="256" height="256" rx="64" fill="#1B140F"/>
  <rect x="12" y="12" width="232" height="232" rx="52" fill="url(#paint0_linear_1_2)"/>
  <path d="M154.957 66C181.427 66 199 79.9706 199 101.213C199 117.301 188.659 127.505 167.61 132.255L122.757 142.316C110.437 145.097 104.027 149.923 104.027 157.342C104.027 166.997 112.649 173.024 127.703 173.024C145.103 173.024 155.649 166.753 158.054 154.861H196C192.297 183.296 166.876 200 127.805 200C87.8221 200 61 183.536 61 155.875C61 138.625 72.0608 127.812 95.1365 122.696L140.13 112.71C151.955 110.057 156.973 105.607 156.973 98.7528C156.973 90.077 148.657 84.3224 135.023 84.3224C118.297 84.3224 108.072 90.7377 105.564 102.047H68.104C71.973 77.3802 96.802 66 133.651 66H154.957Z" fill="#FFF8EF"/>
  <defs>
    <linearGradient id="paint0_linear_1_2" x1="36" y1="28" x2="226" y2="232" gradientUnits="userSpaceOnUse">
      <stop stop-color="#F97316"/>
      <stop offset="1" stop-color="#D9480F"/>
    </linearGradient>
  </defs>
</svg>
