<svg width="256" height="256" viewBox="0 0 256 256" fill="none" xmlns="http://www.w3.org/2000/svg">
  <rect width="256" height="256" rx="64" fill="#1B140F"/>
  <rect x="12" y="12" width="232" height="232" rx="52" fill="url(#paint0_linear_1_2)"/>
  <path d="M101.043 66C74.5727 66 57 79.9706 57 101.213C57 117.301 67.3408 127.505 88.3902 132.255L133.243 142.316C145.563 145.097 151.973 149.923 151.973 157.342C151.973 166.997 143.351 173.024 128.297 173.024C110.897 173.024 100.351 166.753 97.9461 154.861H60C63.7029 183.296 89.1242 200 128.195 200C168.178 200 195 183.536 195 155.875C195 138.625 183.939 127.812 160.864 122.696L115.87 112.71C104.045 110.057 99.0272 105.607 99.0272 98.7528C99.0272 90.077 107.343 84.3224 120.977 84.3224C137.703 84.3224 147.928 90.7377 150.436 102.047H187.896C184.027 77.3802 159.198 66 122.349 66H101.043Z" fill="#FFF8EF"/>
  <defs>
    <linearGradient id="paint0_linear_1_2" x1="36" y1="28" x2="226" y2="232" gradientUnits="userSpaceOnUse">
      <stop stop-color="#F97316"/>
      <stop offset="1" stop-color="#D9480F"/>
    </linearGradient>
  </defs>
</svg>
